<svg width="67" height="68" viewBox="0 0 67 68" fill="none" xmlns="http://www.w3.org/2000/svg">
<path d="M33.5002 59.125C29.9741 56.1173 26.7058 52.8201 23.7293 49.2676C19.2627 43.9328 13.9585 35.9877 13.9585 28.4167C13.9566 24.5501 15.1017 20.7699 17.249 17.5544C19.3963 14.3389 22.4493 11.8327 26.0215 10.3529C29.5937 8.87315 33.5246 8.48638 37.3167 9.24153C41.1088 9.99668 44.5917 11.8598 47.3245 14.5951C49.144 16.4065 50.5861 18.5608 51.5675 20.9333C52.5489 23.3057 53.05 25.8493 53.0418 28.4167C53.0418 35.9877 47.7377 43.9328 43.271 49.2676C40.2945 52.82 37.0262 56.1173 33.5002 59.125ZM33.5002 14.4583C29.7995 14.4628 26.2518 15.9348 23.635 18.5515C21.0183 21.1683 19.5463 24.716 19.5418 28.4167C19.5418 31.6718 21.013 37.3081 28.0145 45.6859C29.7401 47.7463 31.5711 49.7162 33.5002 51.5875C35.4293 49.7183 37.2611 47.7513 38.9886 45.6943C45.9873 37.3053 47.4585 31.669 47.4585 28.4167C47.4541 24.716 45.982 21.1683 43.3653 18.5515C40.7486 15.9348 37.2008 14.4628 33.5002 14.4583ZM33.5002 36.7917C31.279 36.7917 29.1488 35.9093 27.5781 34.3387C26.0075 32.7681 25.1252 30.6379 25.1252 28.4167C25.1252 26.1955 26.0075 24.0653 27.5781 22.4946C29.1488 20.924 31.279 20.0417 33.5002 20.0417C35.7214 20.0417 37.8516 20.924 39.4222 22.4946C40.9928 24.0653 41.8752 26.1955 41.8752 28.4167C41.8752 30.6379 40.9928 32.7681 39.4222 34.3387C37.8516 35.9093 35.7214 36.7917 33.5002 36.7917Z" fill="black"/>
</svg>
