<svg width="67" height="73" viewBox="0 0 67 73" fill="none" xmlns="http://www.w3.org/2000/svg">
<path d="M58.6252 37.1692C58.6252 20.4704 46.7327 9.125 33.5002 9.125C20.4072 9.125 8.37516 20.2271 8.37516 37.3517C6.70016 38.3858 5.5835 40.3325 5.5835 42.5833V48.6667C5.5835 52.0125 8.096 54.75 11.1668 54.75H13.9585V36.1958C13.9585 24.4246 22.6964 14.9042 33.5002 14.9042C44.3039 14.9042 53.0418 24.4246 53.0418 36.1958V57.7917H30.7085V63.875H53.0418C56.1127 63.875 58.6252 61.1375 58.6252 57.7917V54.0808C60.2722 53.1379 61.4168 51.2825 61.4168 49.0925V42.0967C61.4168 39.9675 60.2722 38.1121 58.6252 37.1692Z" fill="black"/>
<path d="M25.1252 42.5833C26.667 42.5833 27.9168 41.2215 27.9168 39.5417C27.9168 37.8618 26.667 36.5 25.1252 36.5C23.5834 36.5 22.3335 37.8618 22.3335 39.5417C22.3335 41.2215 23.5834 42.5833 25.1252 42.5833Z" fill="black"/>
<path d="M41.8752 42.5833C43.417 42.5833 44.6668 41.2215 44.6668 39.5417C44.6668 37.8618 43.417 36.5 41.8752 36.5C40.3334 36.5 39.0835 37.8618 39.0835 39.5417C39.0835 41.2215 40.3334 42.5833 41.8752 42.5833Z" fill="black"/>
<path d="M50.2501 33.5496C49.5844 29.2734 47.5517 25.3917 44.5116 22.5916C41.4716 19.7915 37.6204 18.2536 33.6396 18.25C25.1809 18.25 16.0801 25.8846 16.8059 37.8687C20.2484 36.3339 23.2888 33.8948 25.6561 30.7688C28.0234 27.6429 29.644 23.9273 30.3734 19.9533C34.0305 27.9529 41.5401 33.4583 50.2501 33.5496Z" fill="black"/>
</svg>
